<?xml version="1.0" standalone="no"?>
<!DOCTYPE svg PUBLIC "-//W3C//DTD SVG 20010904//EN"
 "http://www.w3.org/TR/2001/REC-SVG-20010904/DTD/svg10.dtd">
<svg version="1.0" xmlns="http://www.w3.org/2000/svg"
 width="456.000000pt" height="456.000000pt" viewBox="0 0 456.000000 456.000000"
 preserveAspectRatio="xMidYMid meet">
<metadata>
Created by potrace 1.14, written by Peter Selinger 2001-2017
</metadata>
<g transform="translate(0.000000,456.000000) scale(0.100000,-0.100000)"
fill="#000000" stroke="none">
<path d="M917 3464 c-4 -4 -7 -501 -7 -1104 0 -893 2 -1100 13 -1108 9 -8 178
-12 538 -14 l524 -3 63 -34 c112 -61 192 -178 199 -291 6 -89 10 -100 38 -100
28 0 32 11 38 100 7 113 87 230 199 291 l63 34 527 3 c422 2 528 5 537 16 8 9
10 325 9 1112 l-3 1099 -470 0 c-468 0 -470 0 -535 -23 -143 -52 -261 -157
-328 -292 l-37 -75 -37 75 c-67 135 -185 240 -328 292 -64 23 -71 23 -530 26
-256 2 -469 0 -473 -4z m946 -69 c168 -44 315 -185 367 -353 19 -62 20 -95 20
-1002 l0 -938 -72 73 c-55 53 -88 78 -133 96 l-60 24 -507 3 -508 3 0 1054 0
1055 418 0 c338 0 429 -3 475 -15z m1737 -1040 l0 -1054 -507 -3 -508 -3 -60
-24 c-45 -18 -78 -43 -132 -96 l-73 -73 0 938 c0 907 1 940 20 1002 38 123
149 257 258 312 104 53 124 55 580 55 l422 1 0 -1055z"/>
<path d="M1110 2960 c0 -20 7 -20 370 -20 363 0 370 0 370 20 0 20 -7 20 -370
20 -363 0 -370 0 -370 -20z"/>
<path d="M1110 2800 c0 -20 7 -20 430 -20 423 0 430 0 430 20 0 20 -7 20 -430
20 -423 0 -430 0 -430 -20z"/>
<path d="M1110 2610 c0 -20 7 -20 465 -20 458 0 465 0 465 20 0 20 -7 20 -465
20 -458 0 -465 0 -465 -20z"/>
<path d="M1110 2450 c0 -20 7 -20 370 -20 363 0 370 0 370 20 0 20 -7 20 -370
20 -363 0 -370 0 -370 -20z"/>
<path d="M1110 2290 c0 -20 7 -20 430 -20 423 0 430 0 430 20 0 20 -7 20 -430
20 -423 0 -430 0 -430 -20z"/>
<path d="M1110 2100 c0 -20 7 -20 465 -20 458 0 465 0 465 20 0 20 -7 20 -465
20 -458 0 -465 0 -465 -20z"/>
<path d="M1110 1940 c0 -20 7 -20 370 -20 363 0 370 0 370 20 0 20 -7 20 -370
20 -363 0 -370 0 -370 -20z"/>
<path d="M1110 1780 c0 -20 7 -20 430 -20 423 0 430 0 430 20 0 20 -7 20 -430
20 -423 0 -430 0 -430 -20z"/>
<path d="M1110 1590 c0 -20 7 -20 465 -20 458 0 465 0 465 20 0 20 -7 20 -465
20 -458 0 -465 0 -465 -20z"/>
</g>
</svg>
